<svg data-v-423bf9ae="" xmlns="http://www.w3.org/2000/svg" viewBox="0 0 601.0891055219396 163" class="iconAbove"><!----><!----><!----><g data-v-423bf9ae="" id="f607aeab-2104-430b-84fb-0b4c4e9a6c8f" fill="black" transform="matrix(4.950495096249109,0,0,4.950495096249109,-2.079210901602778,91.61386079942932)"><path d="M8.65 5.17L7.64 5.17L7.64 5.17Q6.78 6.09 4.58 8.14L4.58 8.14L4.58 8.14Q8.61 12.11 9.45 12.70L9.45 12.70L9.45 12.70Q10.10 13.17 10.71 13.17L10.71 13.17L10.71 13.17Q11.02 13.17 11.74 12.84L11.74 12.84L11.74 12.84Q11.35 13.21 11.05 13.41L11.05 13.41L11.05 13.41Q10.75 13.60 10.55 13.72L10.55 13.72L10.55 13.72Q10.34 13.83 10.12 13.92L10.12 13.92L10.12 13.92Q9.28 14.26 8.70 14.01L8.70 14.01L8.70 14.01Q8.25 13.82 7.89 13.50L7.89 13.50L7.89 13.50Q7.53 13.17 7.29 12.97L7.29 12.97L7.29 12.97Q7.06 12.76 6.74 12.47L6.74 12.47L6.74 12.47Q6.42 12.18 6.07 11.87L6.07 11.87L6.07 11.87Q5.42 11.26 4.69 10.56L4.69 10.56L4.69 10.56Q3.95 9.86 3.16 9.11L3.16 9.11L3.16 9.11Q6.46 5.95 7.14 5.17L7.14 5.17L5.94 5.17L5.94 5.17Q6.41 4.75 6.80 4.50L6.80 4.50L6.80 4.50Q7.18 4.25 7.27 4.25L7.27 4.25L9.98 4.25L9.98 4.25Q9.85 4.27 9.53 4.56L9.53 4.56L9.53 4.56Q9.21 4.85 9.09 4.95L9.09 4.95L9.09 4.95Q8.80 5.17 8.65 5.17L8.65 5.17ZM3.40 14.08L1.08 14.08L1.08 14.08Q1.70 13.45 1.70 11.70L1.70 11.70L1.70 5.17L0.42 5.17L0.68 4.96L0.68 4.96Q1.55 4.25 1.74 4.25L1.74 4.25L4.86 4.25L4.86 4.25Q4.79 4.25 4.42 4.57L4.42 4.57L4.42 4.57Q4.05 4.89 3.85 5.03L3.85 5.03L3.85 5.03Q3.66 5.17 3.53 5.17L3.53 5.17L3.03 5.17L3.03 11.43L3.03 11.43Q3.03 12.08 2.97 12.31L2.97 12.31L2.97 12.31Q2.87 12.67 2.54 13.15L2.54 13.15L4.73 13.15L4.73 13.15Q4.63 13.17 4.31 13.45L4.31 13.45L4.31 13.45Q3.98 13.74 3.84 13.84L3.84 13.84L3.84 13.84Q3.53 14.08 3.40 14.08L3.40 14.08ZM15.72 8.42L15.72 8.42L15.72 8.42Q16.82 7.43 17.34 7.43L17.34 7.43L17.34 7.43Q17.85 7.43 17.85 8.09L17.85 8.09L17.85 12.43L17.85 12.43Q17.85 12.84 18.03 13.04L18.03 13.04L18.03 13.04Q18.22 13.25 18.65 13.25L18.65 13.25L18.65 13.25Q18.95 13.25 19.24 13.14L19.24 13.14L19.24 13.14Q19.01 13.22 18.83 13.40L18.83 13.40L18.83 13.40Q18.65 13.57 18.44 13.75L18.44 13.75L18.44 13.75Q17.93 14.19 17.27 14.19L17.27 14.19L17.27 14.19Q16.65 14.19 16.56 13.49L16.56 13.49L16.56 13.49Q16.54 13.30 16.53 13.09L16.53 13.09L16.53 13.09Q15.04 14.22 13.88 14.22L13.88 14.22L13.88 14.22Q13.10 14.22 12.71 13.54L12.71 13.54L12.71 13.54Q12.35 12.92 12.35 11.85L12.35 11.85L12.35 9.55L12.35 9.55Q12.35 8.96 12.25 8.74L12.25 8.74L12.25 8.74Q12.06 8.32 11.56 8.32L11.56 8.32L11.56 8.32Q11.32 8.32 11.07 8.42L11.07 8.42L11.07 8.42Q11.91 7.68 12.43 7.48L12.43 7.48L12.43 7.48Q12.68 7.38 12.95 7.38L12.95 7.38L12.95 7.38Q13.70 7.38 13.70 8.33L13.70 8.33L13.70 8.33Q13.70 8.33 13.70 8.78L13.70 8.78L13.70 8.78Q13.70 8.78 13.69 11.33L13.69 11.33L13.69 11.33Q13.69 12.31 14.05 12.77L14.05 12.77L14.05 12.77Q14.45 13.29 15.37 13.29L15.37 13.29L15.37 13.29Q15.83 13.29 16.31 12.90L16.31 12.90L16.31 12.90Q16.43 12.80 16.53 12.74L16.53 12.74L16.53 9.13L16.53 9.13Q16.53 8.62 16.28 8.43L16.28 8.43L16.28 8.43Q16.18 8.35 16.03 8.35L16.03 8.35L16.03 8.35Q15.88 8.35 15.72 8.42ZM24.04 8.79L24.04 8.79L24.04 8.79Q24.18 8.65 24.18 8.59L24.18 8.59L24.18 8.59Q24.18 8.52 24.09 8.46L24.09 8.46L24.09 8.46Q23.99 8.39 23.85 8.34L23.85 8.34L23.85 8.34Q23.70 8.29 23.52 8.25L23.52 8.25L23.52 8.25Q23.34 8.20 23.18 8.18L23.18 8.18L23.18 8.18Q22.83 8.11 22.51 8.11L22.51 8.11L22.51 8.11Q22.19 8.11 21.86 8.30L21.86 8.30L21.86 8.30Q21.53 8.50 21.33 8.82L21.33 8.82L21.33 8.82Q20.98 9.39 20.98 10.21L20.98 10.21L20.98 10.21Q20.98 11.03 21.16 11.56L21.16 11.56L21.16 11.56Q21.33 12.09 21.68 12.47L21.68 12.47L21.68 12.47Q22.39 13.26 23.71 13.26L23.71 13.26L23.71 13.26Q24.53 13.26 25.27 12.85L25.27 12.85L25.27 12.85Q24.41 13.78 23.09 14.10L23.09 14.10L23.09 14.10Q22.67 14.19 22.17 14.19L22.17 14.19L22.17 14.19Q21.66 14.19 21.17 13.98L21.17 13.98L21.17 13.98Q20.68 13.77 20.34 13.39L20.34 13.39L20.34 13.39Q19.63 12.62 19.63 11.39L19.63 11.39L19.63 11.39Q19.63 10.39 20.32 9.38L20.32 9.38L20.32 9.38Q21.34 7.90 23.01 7.37L23.01 7.37L23.01 7.37Q23.53 7.20 23.95 7.20L23.95 7.20L23.95 7.20Q24.95 7.20 25.44 7.57L25.44 7.57L25.44 7.57Q25.50 7.61 25.50 7.68L25.50 7.68L25.50 7.68Q25.50 7.92 24.50 8.57L24.50 8.57L24.50 8.57Q24.14 8.79 24.04 8.79ZM27.99 10.53L27.99 12.59L27.99 12.59Q27.99 13.28 28.38 13.28L28.38 13.28L28.38 13.28Q28.52 13.28 28.80 13.16L28.80 13.16L28.80 13.16Q28.53 13.75 28 14.05L28 14.05L28 14.05Q27.73 14.21 27.42 14.19L27.42 14.19L27.42 14.19Q27.11 14.18 26.98 14.03L26.98 14.03L26.98 14.03Q26.84 13.88 26.77 13.67L26.77 13.67L26.77 13.67Q26.66 13.33 26.66 12.80L26.66 12.80L26.66 5.00L26.66 5.00Q26.66 4.27 26.41 4.03L26.41 4.03L26.41 4.03Q26.29 3.92 26.11 3.92L26.11 3.92L26.11 3.92Q25.82 3.92 25.47 4.02L25.47 4.02L25.47 4.02Q26.30 3.36 27.99 2.30L27.99 2.30L27.99 8.57L27.99 8.57Q28.84 7.82 29.74 7.55L29.74 7.55L29.74 7.55Q30.06 7.44 30.37 7.44L30.37 7.44L30.37 7.44Q30.68 7.44 30.96 7.54L30.96 7.54L30.96 7.54Q31.23 7.64 31.45 7.82L31.45 7.82L31.45 7.82Q31.94 8.22 31.94 8.83L31.94 8.83L31.94 12.30L31.94 12.30Q31.94 13.21 32.38 13.30L32.38 13.30L32.38 13.30Q32.50 13.33 32.63 13.33L32.63 13.33L32.63 13.33Q32.85 13.33 33.23 13.16L33.23 13.16L33.23 13.16Q32.66 13.88 31.91 14.11L31.91 14.11L31.91 14.11Q31.65 14.19 31.35 14.19L31.35 14.19L31.35 14.19Q31.06 14.19 30.89 14.05L30.89 14.05L30.89 14.05Q30.73 13.90 30.67 13.69L30.67 13.69L30.67 13.69Q30.60 13.47 30.60 13.21L30.60 13.21L30.60 10.14L30.60 10.14Q30.60 9.10 30.28 8.74L30.28 8.74L30.28 8.74Q29.99 8.39 29.20 8.39L29.20 8.39L29.20 8.39Q28.14 8.39 28.01 9.84L28.01 9.84L28.01 9.84Q27.99 10.21 27.99 10.53L27.99 10.53ZM34.51 13.62L34.51 13.62L34.51 9.22L34.51 9.22Q34.51 8.76 34.39 8.61L34.39 8.61L34.39 8.61Q34.18 8.33 33.80 8.33L33.80 8.33L33.80 8.33Q33.43 8.33 33.13 8.44L33.13 8.44L33.13 8.44Q33.31 8.37 33.60 8.12L33.60 8.12L33.60 8.12Q34.13 7.64 34.34 7.55L34.34 7.55L34.34 7.55Q34.75 7.39 35.06 7.39L35.06 7.39L35.06 7.39Q35.38 7.39 35.53 7.49L35.53 7.49L35.53 7.49Q35.68 7.59 35.75 7.77L35.75 7.77L35.75 7.77Q35.84 7.98 35.84 8.57L35.84 8.57L35.84 8.57Q37.12 7.44 38.23 7.44L38.23 7.44L38.23 7.44Q38.84 7.44 39.29 7.83L39.29 7.83L39.29 7.83Q39.76 8.24 39.76 8.83L39.76 8.83L39.76 12.20L39.76 12.20Q39.76 12.71 39.87 12.90L39.87 12.90L39.87 12.90Q40.08 13.26 40.56 13.26L40.56 13.26L40.56 13.26Q40.83 13.26 41.08 13.16L41.08 13.16L41.08 13.16Q40.47 13.69 40.24 13.84L40.24 13.84L40.24 13.84Q39.70 14.18 39.30 14.18L39.30 14.18L39.30 14.18Q38.90 14.18 38.74 14.04L38.74 14.04L38.74 14.04Q38.57 13.90 38.50 13.68L38.50 13.68L38.50 13.68Q38.42 13.44 38.42 12.70L38.42 12.70L38.42 10.14L38.42 10.14Q38.42 8.92 37.63 8.53L37.63 8.53L37.63 8.53Q37.34 8.39 36.93 8.39L36.93 8.39L36.93 8.39Q35.94 8.39 35.86 9.86L35.86 9.86L35.86 9.86Q35.84 10.23 35.84 10.53L35.84 10.53L35.84 12.64L35.84 12.64Q35.84 13.08 36.11 13.23L36.11 13.23L36.11 13.23Q36.20 13.30 36.35 13.30L36.35 13.30L36.35 13.30Q36.49 13.30 36.65 13.23L36.65 13.23L36.65 13.23Q36.50 13.35 36.31 13.52L36.31 13.52L36.31 13.52Q36.11 13.69 35.89 13.85L35.89 13.85L35.89 13.85Q35.35 14.22 35.03 14.22L35.03 14.22L35.03 14.22Q34.51 14.22 34.51 13.62ZM42.24 3.41L43.57 2.48L43.61 3.26L43.61 3.62L43.61 3.62Q43.61 3.94 43.52 4.02L43.52 4.02L43.52 4.02Q43.44 4.09 43.35 4.16L43.35 4.16L43.35 4.16Q42.96 4.43 42.24 4.89L42.24 4.89L42.24 4.89Q42.27 4.21 42.27 4.19L42.27 4.19L42.27 4.19Q42.27 4.16 42.24 3.41L42.24 3.41ZM44.99 13.24L44.99 13.24L44.99 13.24Q44.79 13.41 44.59 13.58L44.59 13.58L44.59 13.58Q44.40 13.75 44.19 13.89L44.19 13.89L44.19 13.89Q43.70 14.21 43.24 14.21L43.24 14.21L43.24 14.21Q42.82 14.21 42.65 14.08L42.65 14.08L42.65 14.08Q42.30 13.82 42.30 13.13L42.30 13.13L42.30 9.88L42.30 9.88Q42.30 9.15 42.03 8.93L42.03 8.93L42.03 8.93Q41.91 8.83 41.77 8.83L41.77 8.83L41.77 8.83Q41.62 8.83 41.52 8.84L41.52 8.84L41.52 8.84Q41.43 8.86 41.32 8.88L41.32 8.88L41.32 8.88Q41.22 8.90 41.11 8.92L41.11 8.92L41.11 8.92Q41.45 8.65 41.75 8.44L41.75 8.44L41.75 8.44Q42.05 8.23 42.26 8.09L42.26 8.09L42.26 8.09Q42.47 7.94 42.85 7.68L42.85 7.68L42.85 7.68Q43.22 7.42 43.63 7.21L43.63 7.21L43.63 12.03L43.63 12.03Q43.63 12.73 43.72 12.91L43.72 12.91L43.72 12.91Q43.91 13.29 44.56 13.29L44.56 13.29L44.56 13.29Q44.74 13.29 44.99 13.24ZM50.12 9.28L50.12 12.06L50.11 12.54L50.11 12.54Q50.11 13.07 50.41 13.21L50.41 13.21L50.41 13.21Q50.52 13.27 50.67 13.27L50.67 13.27L50.67 13.27Q50.91 13.27 51.17 13.16L51.17 13.16L51.17 13.16Q50.91 13.27 50.72 13.45L50.72 13.45L50.72 13.45Q50.52 13.62 50.33 13.79L50.33 13.79L50.33 13.79Q49.83 14.21 49.33 14.21L49.33 14.21L49.33 14.21Q48.84 14.21 48.80 13.63L48.80 13.63L48.80 13.63Q48.79 13.48 48.79 13.33L48.79 13.33L48.79 13.33Q47.56 14.18 46.53 14.18L46.53 14.18L46.53 14.18Q45.66 14.18 45.33 13.66L45.33 13.66L45.33 13.66Q45.21 13.47 45.21 13.13L45.21 13.13L45.21 13.13Q45.21 12.80 45.41 12.46L45.41 12.46L45.41 12.46Q45.62 12.12 45.93 11.84L45.93 11.84L45.93 11.84Q46.49 11.32 47.28 10.99L47.28 10.99L47.28 10.99Q47.87 10.73 48.79 10.70L48.79 10.70L48.79 10.40L48.79 10.40Q48.79 9.31 48.60 8.93L48.60 8.93L48.60 8.93Q48.40 8.54 48.08 8.36L48.08 8.36L48.08 8.36Q47.77 8.18 47.35 8.18L47.35 8.18L47.35 8.18Q46.63 8.18 46.08 8.46L46.08 8.46L46.08 8.46Q46.83 7.84 47.18 7.64L47.18 7.64L47.18 7.64Q47.90 7.24 48.48 7.24L48.48 7.24L48.48 7.24Q49.07 7.24 49.36 7.41L49.36 7.41L49.36 7.41Q49.66 7.58 49.83 7.86L49.83 7.86L49.83 7.86Q50.12 8.35 50.12 9.28L50.12 9.28ZM46.91 13.04L46.91 13.04L46.91 13.04Q47.07 13.16 47.29 13.21L47.29 13.21L47.29 13.21Q47.51 13.27 47.94 13.27L47.94 13.27L47.94 13.27Q48.37 13.27 48.79 13.06L48.79 13.06L48.79 11.63L47.69 11.63L47.69 11.63Q47.09 11.63 46.65 11.71L46.65 11.71L46.65 11.71Q46.56 12.00 46.56 12.27L46.56 12.27L46.56 12.27Q46.56 12.54 46.65 12.73L46.65 12.73L46.65 12.73Q46.74 12.92 46.91 13.04ZM61.09 5.18L61.09 5.18L61.09 5.18Q61.34 5.01 62.38 4.25L62.38 4.25L62.38 4.25Q63.39 4.96 65.15 11.50L65.15 11.50L65.15 11.50Q65.27 11.96 65.34 12.23L65.34 12.23L65.34 12.23Q65.47 11.92 65.69 11.43L65.69 11.43L65.69 11.43Q65.92 10.95 66.18 10.38L66.18 10.38L66.18 10.38Q66.45 9.82 66.72 9.21L66.72 9.21L66.72 9.21Q66.99 8.60 67.20 8.04L67.20 8.04L67.20 8.04Q67.70 6.79 67.70 6.28L67.70 6.28L67.70 6.28Q67.70 5.49 67.19 5.14L67.19 5.14L67.19 5.14Q67.02 5.02 66.83 5.02L66.83 5.02L66.83 5.02Q66.53 5.02 66.29 5.14L66.29 5.14L66.29 5.14Q66.51 5.02 66.72 4.85L66.72 4.85L66.72 4.85Q66.92 4.68 67.12 4.51L67.12 4.51L67.12 4.51Q67.63 4.11 68.06 4.11L68.06 4.11L68.06 4.11Q68.50 4.11 68.78 4.46L68.78 4.46L68.78 4.46Q69.04 4.77 69.04 5.23L69.04 5.23L69.04 5.23Q69.04 6.05 67.00 10.57L67.00 10.57L67.00 10.57Q66.30 12.11 66.21 12.34L66.21 12.34L66.21 12.34Q66.12 12.56 66.04 12.77L66.04 12.77L66.04 12.77Q65.82 13.25 65.72 13.39L65.72 13.39L65.72 13.39Q65.62 13.54 65.44 13.67L65.44 13.67L65.44 13.67Q65.26 13.79 65.04 13.94L65.04 13.94L65.04 13.94Q64.82 14.09 64.61 14.22L64.61 14.22L64.61 14.22Q64.41 14.36 64.33 14.42L64.33 14.42L64.33 14.42Q64.12 13.61 63.92 12.80L63.92 12.80L63.92 12.80Q63.72 12.00 63.50 11.20L63.50 11.20L63.50 11.20Q63.04 9.50 62.51 8.04L62.51 8.04L62.51 8.04Q62.03 9.34 61.32 10.90L61.32 10.90L61.32 10.90Q60.61 12.46 60.45 12.83L60.45 12.83L60.45 12.83Q60.29 13.21 60.09 13.49L60.09 13.49L60.09 13.49Q60.01 13.60 59.42 13.98L59.42 13.98L59.42 13.98Q58.84 14.36 58.76 14.42L58.76 14.42L58.76 14.42Q58.69 14.10 58.56 13.54L58.56 13.54L58.56 13.54Q58.44 12.97 58.28 12.26L58.28 12.26L58.28 12.26Q58.11 11.54 57.91 10.73L57.91 10.73L57.91 10.73Q57.70 9.93 57.46 9.13L57.46 9.13L57.46 9.13Q57.21 8.33 56.93 7.59L56.93 7.59L56.93 7.59Q56.65 6.86 56.33 6.30L56.33 6.30L56.33 6.30Q55.65 5.08 54.96 5.08L54.96 5.08L54.96 5.08Q54.61 5.08 54.22 5.30L54.22 5.30L54.22 5.30Q54.89 4.61 55.82 4.25L55.82 4.25L55.82 4.25Q56.12 4.13 56.35 4.13L56.35 4.13L56.35 4.13Q56.94 4.13 57.46 4.95L57.46 4.95L57.46 4.95Q57.91 5.69 58.21 6.57L58.21 6.57L58.21 6.57Q58.52 7.46 58.71 8.06L58.71 8.06L58.71 8.06Q58.89 8.67 59.06 9.27L59.06 9.27L59.06 9.27Q59.22 9.88 59.36 10.43L59.36 10.43L59.36 10.43Q59.56 11.22 59.79 12.24L59.79 12.24L59.79 12.24Q59.95 11.88 60.15 11.44L60.15 11.44L60.15 11.44Q60.35 10.99 60.56 10.51L60.56 10.51L60.56 10.51Q60.77 10.03 60.97 9.52L60.97 9.52L60.97 9.52Q61.17 9.02 61.33 8.52L61.33 8.52L61.33 8.52Q61.67 7.42 61.67 6.73L61.67 6.73L61.67 6.73Q61.67 5.73 61.09 5.18ZM72.06 8.78L72.06 8.78L72.06 8.78Q72.19 8.68 72.19 8.57L72.19 8.57L72.19 8.57Q72.19 8.46 72.06 8.40L72.06 8.40L72.06 8.40Q71.93 8.34 71.76 8.31L71.76 8.31L71.76 8.31Q71.50 8.25 71.27 8.25L71.27 8.25L71.27 8.25Q71.04 8.25 70.91 8.27L70.91 8.27L70.91 8.27Q70.79 8.30 70.70 8.36L70.70 8.36L70.70 8.36Q70.51 8.49 70.51 8.82L70.51 8.82L70.51 8.82Q70.51 9.15 70.65 9.35L70.65 9.35L70.65 9.35Q70.79 9.56 71.03 9.71L71.03 9.71L71.03 9.71Q71.26 9.85 71.57 9.95L71.57 9.95L71.57 9.95Q71.87 10.04 72.18 10.13L72.18 10.13L72.18 10.13Q72.49 10.23 72.79 10.34L72.79 10.34L72.79 10.34Q73.09 10.45 73.32 10.62L73.32 10.62L73.32 10.62Q73.85 11.01 73.85 11.68L73.85 11.68L73.85 11.68Q73.85 12.34 73.21 12.97L73.21 12.97L73.21 12.97Q72.67 13.51 71.79 13.89L71.79 13.89L71.79 13.89Q70.97 14.25 70.33 14.25L70.33 14.25L70.33 14.25Q69.55 14.25 69.08 13.92L69.08 13.92L69.08 13.92Q68.91 13.79 68.91 13.60L68.91 13.60L68.91 13.60Q68.91 13.41 69.08 13.24L69.08 13.24L69.08 13.24Q69.26 13.08 69.50 12.94L69.50 12.94L69.50 12.94Q69.74 12.80 69.98 12.68L69.98 12.68L69.98 12.68Q70.22 12.55 70.34 12.41L70.34 12.41L70.34 12.41Q70.22 12.54 70.22 12.71L70.22 12.71L70.22 12.71Q70.22 12.89 70.41 13.01L70.41 13.01L70.41 13.01Q70.60 13.13 70.86 13.19L70.86 13.19L70.86 13.19Q71.31 13.30 71.73 13.30L71.73 13.30L71.73 13.30Q72.15 13.30 72.33 13.15L72.33 13.15L72.33 13.15Q72.52 13.00 72.52 12.63L72.52 12.63L72.52 12.63Q72.52 12.27 72.38 12.04L72.38 12.04L72.38 12.04Q72.24 11.81 72.00 11.65L72.00 11.65L72.00 11.65Q71.77 11.48 71.47 11.37L71.47 11.37L71.47 11.37Q71.17 11.26 70.86 11.15L70.86 11.15L70.86 11.15Q70.55 11.05 70.25 10.94L70.25 10.94L70.25 10.94Q69.95 10.83 69.71 10.67L69.71 10.67L69.71 10.67Q69.19 10.32 69.19 9.76L69.19 9.76L69.19 9.76Q69.19 9.23 69.82 8.62L69.82 8.62L69.82 8.62Q70.37 8.10 70.96 7.81L70.96 7.81L70.96 7.81Q71.98 7.31 72.50 7.31L72.50 7.31L72.50 7.31Q73.04 7.31 73.28 7.43L73.28 7.43L73.28 7.43Q73.52 7.55 73.52 7.63L73.52 7.63L73.52 7.63Q73.52 7.72 73.47 7.79L73.47 7.79L73.47 7.79Q73.41 7.85 73.33 7.91L73.33 7.91L73.33 7.91Q73.25 7.97 73.17 8.02L73.17 8.02L73.17 8.02Q73.09 8.07 72.94 8.16L72.94 8.16L72.94 8.16Q72.79 8.26 72.54 8.42L72.54 8.42L72.54 8.42Q72.28 8.58 72.06 8.78ZM79.16 8.79L79.16 8.79L79.16 8.79Q79.30 8.65 79.30 8.59L79.30 8.59L79.30 8.59Q79.30 8.52 79.20 8.46L79.20 8.46L79.20 8.46Q79.11 8.39 78.97 8.34L78.97 8.34L78.97 8.34Q78.82 8.29 78.64 8.25L78.64 8.25L78.64 8.25Q78.46 8.20 78.30 8.18L78.30 8.18L78.30 8.18Q77.95 8.11 77.63 8.11L77.63 8.11L77.63 8.11Q77.31 8.11 76.98 8.30L76.98 8.30L76.98 8.30Q76.64 8.50 76.45 8.82L76.45 8.82L76.45 8.82Q76.10 9.39 76.10 10.21L76.10 10.21L76.10 10.21Q76.10 11.03 76.28 11.56L76.28 11.56L76.28 11.56Q76.45 12.09 76.79 12.47L76.79 12.47L76.79 12.47Q77.51 13.26 78.83 13.26L78.83 13.26L78.83 13.26Q79.65 13.26 80.39 12.85L80.39 12.85L80.39 12.85Q79.53 13.78 78.21 14.10L78.21 14.10L78.21 14.10Q77.79 14.19 77.29 14.19L77.29 14.19L77.29 14.19Q76.78 14.19 76.29 13.98L76.29 13.98L76.29 13.98Q75.80 13.77 75.46 13.39L75.46 13.39L75.46 13.39Q74.75 12.62 74.75 11.39L74.75 11.39L74.75 11.39Q74.75 10.39 75.44 9.38L75.44 9.38L75.44 9.38Q76.46 7.90 78.13 7.37L78.13 7.37L78.13 7.37Q78.65 7.20 79.07 7.20L79.07 7.20L79.07 7.20Q80.07 7.20 80.56 7.57L80.56 7.57L80.56 7.57Q80.62 7.61 80.62 7.68L80.62 7.68L80.62 7.68Q80.62 7.92 79.62 8.57L79.62 8.57L79.62 8.57Q79.26 8.79 79.16 8.79ZM83.10 10.53L83.10 12.59L83.10 12.59Q83.10 13.28 83.50 13.28L83.50 13.28L83.50 13.28Q83.64 13.28 83.92 13.16L83.92 13.16L83.92 13.16Q83.65 13.75 83.12 14.05L83.12 14.05L83.12 14.05Q82.84 14.21 82.54 14.19L82.54 14.19L82.54 14.19Q82.23 14.18 82.10 14.03L82.10 14.03L82.10 14.03Q81.96 13.88 81.89 13.67L81.89 13.67L81.89 13.67Q81.78 13.33 81.78 12.80L81.78 12.80L81.78 5.00L81.78 5.00Q81.78 4.27 81.53 4.03L81.53 4.03L81.53 4.03Q81.41 3.92 81.23 3.92L81.23 3.92L81.23 3.92Q80.94 3.92 80.59 4.02L80.59 4.02L80.59 4.02Q81.42 3.36 83.10 2.30L83.10 2.30L83.10 8.57L83.10 8.57Q83.96 7.82 84.85 7.55L84.85 7.55L84.85 7.55Q85.18 7.44 85.49 7.44L85.49 7.44L85.49 7.44Q85.80 7.44 86.07 7.54L86.07 7.54L86.07 7.54Q86.35 7.64 86.57 7.82L86.57 7.82L86.57 7.82Q87.06 8.22 87.06 8.83L87.06 8.83L87.06 12.30L87.06 12.30Q87.06 13.21 87.49 13.30L87.49 13.30L87.49 13.30Q87.62 13.33 87.75 13.33L87.75 13.33L87.75 13.33Q87.96 13.33 88.35 13.16L88.35 13.16L88.35 13.16Q87.78 13.88 87.03 14.11L87.03 14.11L87.03 14.11Q86.77 14.19 86.47 14.19L86.47 14.19L86.47 14.19Q86.17 14.19 86.01 14.05L86.01 14.05L86.01 14.05Q85.85 13.90 85.78 13.69L85.78 13.69L85.78 13.69Q85.72 13.47 85.72 13.21L85.72 13.21L85.72 10.14L85.72 10.14Q85.72 9.10 85.40 8.74L85.40 8.74L85.40 8.74Q85.11 8.39 84.31 8.39L84.31 8.39L84.31 8.39Q83.25 8.39 83.13 9.84L83.13 9.84L83.13 9.84Q83.10 10.21 83.10 10.53L83.10 10.53ZM94.63 8.18L94.63 8.18L94.63 8.18Q94.98 8.57 95.17 9.08L95.17 9.08L95.17 9.08Q95.37 9.59 95.37 10.10L95.37 10.10L95.37 10.10Q95.37 10.62 95.22 11.10L95.22 11.10L95.22 11.10Q95.07 11.59 94.80 12.04L94.80 12.04L94.80 12.04Q94.53 12.50 94.16 12.89L94.16 12.89L94.16 12.89Q93.80 13.28 93.36 13.58L93.36 13.58L93.36 13.58Q92.43 14.20 91.48 14.20L91.48 14.20L91.48 14.20Q90.36 14.20 89.58 13.33L89.58 13.33L89.58 13.33Q88.83 12.50 88.83 11.38L88.83 11.38L88.83 11.38Q88.83 10.42 89.41 9.45L89.41 9.45L89.41 9.45Q90.28 7.99 91.77 7.48L91.77 7.48L91.77 7.48Q92.25 7.31 92.78 7.31L92.78 7.31L92.78 7.31Q93.32 7.31 93.80 7.54L93.80 7.54L93.80 7.54Q94.28 7.78 94.63 8.18ZM91.40 8.22L91.40 8.22L91.40 8.22Q90.71 8.22 90.40 8.89L90.40 8.89L90.40 8.89Q90.15 9.41 90.15 10.06L90.15 10.06L90.15 10.06Q90.15 10.72 90.33 11.28L90.33 11.28L90.33 11.28Q90.50 11.85 90.84 12.29L90.84 12.29L90.84 12.29Q91.60 13.29 92.80 13.29L92.80 13.29L92.80 13.29Q93.50 13.29 93.81 12.59L93.81 12.59L93.81 12.59Q94.04 12.07 94.04 11.40L94.04 11.40L94.04 11.40Q94.04 10.08 93.30 9.15L93.30 9.15L93.30 9.15Q92.57 8.22 91.40 8.22ZM98.64 7.86L98.64 7.86Q99.12 7.59 99.65 7.45L99.65 7.45L99.65 7.45Q100.17 7.30 100.54 7.30L100.54 7.30L100.54 7.30Q100.90 7.30 101.17 7.35L101.17 7.35L101.17 5.11L101.17 5.11Q101.17 4.38 100.91 4.14L100.91 4.14L100.91 4.14Q100.78 4.03 100.60 4.03L100.60 4.03L100.60 4.03Q100.39 4.03 99.98 4.13L99.98 4.13L99.98 4.13Q101.70 2.82 102.50 2.41L102.50 2.41L102.50 12.19L102.50 12.19Q102.50 12.74 102.61 12.92L102.61 12.92L102.61 12.92Q102.82 13.26 103.33 13.26L103.33 13.26L103.33 13.26Q103.53 13.26 103.73 13.22L103.73 13.22L103.73 13.22Q103.53 13.38 103.34 13.55L103.34 13.55L103.34 13.55Q103.14 13.72 102.93 13.86L102.93 13.86L102.93 13.86Q102.44 14.19 102.07 14.19L102.07 14.19L102.07 14.19Q101.71 14.19 101.54 14.12L101.54 14.12L101.54 14.12Q101.38 14.05 101.29 13.92L101.29 13.92L101.29 13.92Q101.16 13.73 101.16 13.18L101.16 13.18L101.16 13.18Q99.76 14.22 98.91 14.22L98.91 14.22L98.91 14.22Q97.66 14.22 97.00 13.38L97.00 13.38L97.00 13.38Q96.38 12.62 96.38 11.33L96.38 11.33L96.38 11.33Q96.38 10.28 97.04 9.32L97.04 9.32L97.04 9.32Q97.64 8.42 98.64 7.86L98.64 7.86ZM101.17 12.60L101.17 9.21L101.17 9.21Q100.86 8.72 100.37 8.47L100.37 8.47L100.37 8.47Q99.88 8.22 99.35 8.22L99.35 8.22L99.35 8.22Q98.81 8.22 98.50 8.40L98.50 8.40L98.50 8.40Q98.18 8.58 98.01 8.88L98.01 8.88L98.01 8.88Q97.70 9.40 97.70 10.18L97.70 10.18L97.70 10.18Q97.70 10.96 97.84 11.49L97.84 11.49L97.84 11.49Q97.97 12.02 98.27 12.43L98.27 12.43L98.27 12.43Q98.91 13.30 100.15 13.30L100.15 13.30L100.15 13.30Q100.41 13.30 100.67 13.14L100.67 13.14L100.67 13.14Q101.17 12.85 101.17 12.60L101.17 12.60ZM105.18 13.62L105.18 13.62L105.19 9.22L105.19 9.22Q105.19 8.76 105.07 8.61L105.07 8.61L105.07 8.61Q104.86 8.33 104.48 8.33L104.48 8.33L104.48 8.33Q104.10 8.33 103.81 8.44L103.81 8.44L103.81 8.44Q103.99 8.37 104.28 8.12L104.28 8.12L104.28 8.12Q104.80 7.64 105.02 7.55L105.02 7.55L105.02 7.55Q105.43 7.39 105.74 7.39L105.74 7.39L105.74 7.39Q106.05 7.39 106.21 7.49L106.21 7.49L106.21 7.49Q106.36 7.59 106.43 7.77L106.43 7.77L106.43 7.77Q106.52 7.98 106.52 8.57L106.52 8.57L106.52 8.57Q107.80 7.44 108.91 7.44L108.91 7.44L108.91 7.44Q109.52 7.44 109.97 7.83L109.97 7.83L109.97 7.83Q110.44 8.24 110.44 8.83L110.44 8.83L110.44 12.20L110.44 12.20Q110.44 12.71 110.55 12.90L110.55 12.90L110.55 12.90Q110.76 13.26 111.23 13.26L111.23 13.26L111.23 13.26Q111.51 13.26 111.75 13.16L111.75 13.16L111.75 13.16Q111.15 13.69 110.91 13.84L110.91 13.84L110.91 13.84Q110.38 14.18 109.98 14.18L109.98 14.18L109.98 14.18Q109.58 14.18 109.41 14.04L109.41 14.04L109.41 14.04Q109.25 13.90 109.18 13.68L109.18 13.68L109.18 13.68Q109.10 13.44 109.10 12.70L109.10 12.70L109.10 10.14L109.10 10.14Q109.10 8.92 108.30 8.53L108.30 8.53L108.30 8.53Q108.01 8.39 107.61 8.39L107.61 8.39L107.61 8.39Q106.62 8.39 106.54 9.86L106.54 9.86L106.54 9.86Q106.52 10.23 106.52 10.53L106.52 10.53L106.52 12.64L106.52 12.64Q106.52 13.08 106.78 13.23L106.78 13.23L106.78 13.23Q106.88 13.30 107.02 13.30L107.02 13.30L107.02 13.30Q107.17 13.30 107.32 13.23L107.32 13.23L107.32 13.23Q107.18 13.35 106.98 13.52L106.98 13.52L106.98 13.52Q106.78 13.69 106.57 13.85L106.57 13.85L106.57 13.85Q106.03 14.22 105.70 14.22L105.70 14.22L105.70 14.22Q105.18 14.22 105.18 13.62ZM112.92 3.41L114.24 2.48L114.28 3.26L114.28 3.62L114.28 3.62Q114.28 3.94 114.20 4.02L114.20 4.02L114.20 4.02Q114.12 4.09 114.02 4.16L114.02 4.16L114.02 4.16Q113.64 4.43 112.92 4.89L112.92 4.89L112.92 4.89Q112.95 4.21 112.95 4.19L112.95 4.19L112.95 4.19Q112.95 4.16 112.92 3.41L112.92 3.41ZM115.67 13.24L115.67 13.24L115.67 13.24Q115.47 13.41 115.27 13.58L115.27 13.58L115.27 13.58Q115.08 13.75 114.86 13.89L114.86 13.89L114.86 13.89Q114.37 14.21 113.92 14.21L113.92 14.21L113.92 14.21Q113.50 14.21 113.33 14.08L113.33 14.08L113.33 14.08Q112.98 13.82 112.98 13.13L112.98 13.13L112.98 9.88L112.98 9.88Q112.98 9.15 112.71 8.93L112.71 8.93L112.71 8.93Q112.59 8.83 112.44 8.83L112.44 8.83L112.44 8.83Q112.30 8.83 112.20 8.84L112.20 8.84L112.20 8.84Q112.10 8.86 112 8.88L112 8.88L112 8.88Q111.90 8.90 111.79 8.92L111.79 8.92L111.79 8.92Q112.13 8.65 112.43 8.44L112.43 8.44L112.43 8.44Q112.72 8.23 112.94 8.09L112.94 8.09L112.94 8.09Q113.15 7.94 113.52 7.68L113.52 7.68L113.52 7.68Q113.90 7.42 114.30 7.21L114.30 7.21L114.30 12.03L114.30 12.03Q114.30 12.73 114.39 12.91L114.39 12.91L114.39 12.91Q114.58 13.29 115.24 13.29L115.24 13.29L115.24 13.29Q115.42 13.29 115.67 13.24ZM120.80 9.28L120.80 12.06L120.78 12.54L120.78 12.54Q120.78 13.07 121.08 13.21L121.08 13.21L121.08 13.21Q121.20 13.27 121.35 13.27L121.35 13.27L121.35 13.27Q121.59 13.27 121.84 13.16L121.84 13.16L121.84 13.16Q121.58 13.27 121.39 13.45L121.39 13.45L121.39 13.45Q121.20 13.62 121.00 13.79L121.00 13.79L121.00 13.79Q120.51 14.21 120.01 14.21L120.01 14.21L120.01 14.21Q119.51 14.21 119.48 13.63L119.48 13.63L119.48 13.63Q119.46 13.48 119.46 13.33L119.46 13.33L119.46 13.33Q118.23 14.18 117.21 14.18L117.21 14.18L117.21 14.18Q116.34 14.18 116.01 13.66L116.01 13.66L116.01 13.66Q115.88 13.47 115.88 13.13L115.88 13.13L115.88 13.13Q115.88 12.80 116.09 12.46L116.09 12.46L116.09 12.46Q116.29 12.12 116.61 11.84L116.61 11.84L116.61 11.84Q117.17 11.32 117.96 10.99L117.96 10.99L117.96 10.99Q118.55 10.73 119.47 10.70L119.47 10.70L119.47 10.40L119.47 10.40Q119.47 9.31 119.27 8.93L119.27 8.93L119.27 8.93Q119.08 8.54 118.76 8.36L118.76 8.36L118.76 8.36Q118.45 8.18 118.02 8.18L118.02 8.18L118.02 8.18Q117.30 8.18 116.76 8.46L116.76 8.46L116.76 8.46Q117.51 7.84 117.86 7.64L117.86 7.64L117.86 7.64Q118.58 7.24 119.16 7.24L119.16 7.24L119.16 7.24Q119.75 7.24 120.04 7.41L120.04 7.41L120.04 7.41Q120.33 7.58 120.50 7.86L120.50 7.86L120.50 7.86Q120.80 8.35 120.80 9.28L120.80 9.28ZM117.58 13.04L117.58 13.04L117.58 13.04Q117.75 13.16 117.97 13.21L117.97 13.21L117.97 13.21Q118.19 13.27 118.62 13.27L118.62 13.27L118.62 13.27Q119.05 13.27 119.47 13.06L119.47 13.06L119.47 11.63L118.36 11.63L118.36 11.63Q117.77 11.63 117.33 11.71L117.33 11.71L117.33 11.71Q117.24 12.00 117.24 12.27L117.24 12.27L117.24 12.27Q117.24 12.54 117.33 12.73L117.33 12.73L117.33 12.73Q117.42 12.92 117.58 13.04Z"></path></g><!----><g data-v-423bf9ae="" id="3e67a840-de43-4dbc-b786-a328403d1918" transform="matrix(1.0000053406046938,0,0,1.0000053406046938,250.5863418544264,-5.000026705592987)" stroke="none" fill="black"><switch><g><path d="M72.826 67.021l.001.014zM79.197 51.652L66.301 62.82a41.032 41.032 0 0 0-2.256-.477 54.317 54.317 0 0 0-1.256-.215c6.389-6.652 11.697-12.183 11.697-12.183 2.111-2.292-.641-3.099-2.418-1.169L60.56 61.812c-4.355-.548-9.662-.835-15.584-.835l-.285.001c-6.791.01-13.47.611-18.808 1.695-2.33.474-4.289 1.022-5.665 1.587-1.221.501-2.623 1.233-2.631 2.461v.022c.001.055.005.103.01.142.183 7.547 3.124 14.606 8.282 19.886C31.066 92.077 37.927 95 45.197 95c7.152 0 13.94-2.852 19.114-8.029 5.131-5.136 8.15-12.031 8.504-19.423.025-.166.029-.336.014-.507l-.001-.006v.001l-.098.01-.001-.014.098-.011-.006-.042c-.207-1.451-1.656-2.625-4.398-3.553l12.974-10.381c2.484-2.067-.106-3.134-2.2-1.393zM45.982 70.76h-.255c-8.908-.017-15.812-.598-20.521-1.728-3.429-.823-4.785-1.728-5.295-2.209.612-.401 2.423-1.212 6.389-2.019 5.21-1.061 11.742-1.65 18.393-1.659l.237-.001c5.201 0 9.902.223 13.878.649l-5.99 6.785c-2.205.12-4.501.182-6.836.182zm17.594-1.364a65.338 65.338 0 0 1-3.251.507l6.034-4.826c3.279.863 4.068 1.724 4.257 2.062-.591.507-2.561 1.434-7.04 2.257zm-5.797.802c-.969.099-1.968.185-2.991.258l6.153-6.404c1.014.138 1.972.291 2.867.459l.441.085-6.47 5.602z"></path><path d="M60.555 28.321c-5.252 2.298-9.4 4.113-9.394 6.739.005 1.751 1.81 3.31 5.851 5.053 2.248.97 6.041 2.892 6.172 4.861.066 1-.848 2.077-2.718 3.199-.4.24-.854.488-1.334.751-2.244 1.229-4.787 2.622-5.317 4.882-.268 1.14.033 2.342.893 3.573a.784.784 0 0 0 1.097.195.79.79 0 0 0 .195-1.098c-.601-.86-.813-1.616-.65-2.312.369-1.575 2.682-2.842 4.539-3.859.494-.271.961-.526 1.389-.782 2.451-1.472 3.59-2.994 3.479-4.656-.145-2.17-2.473-4.199-7.119-6.204-4.26-1.837-4.897-3.05-4.898-3.61-.004-1.592 4.486-3.557 8.453-5.292 2.71-1.205 3.223-2.691 3.176-3.726-.086-1.878-2.043-3.561-5.51-4.737-2.219-.753-2.906-1.505-3.094-2.003-.245-.657.189-1.403.611-2.126.094-.162.184-.315.266-.469a.789.789 0 0 0-1.392-.741 9.19 9.19 0 0 1-.236.417c-.52.893-1.231 2.115-.725 3.472.452 1.206 1.781 2.169 4.064 2.943 3.213 1.09 4.4 2.428 4.44 3.316.033.761-.783 1.568-2.238 2.214z"></path><path d="M42.133 38.982c.427.256.894.511 1.388.782 1.858 1.017 4.17 2.283 4.54 3.859.163.694-.05 1.451-.65 2.311a.789.789 0 0 0 1.293.903c.859-1.231 1.16-2.434.893-3.573-.53-2.261-3.074-3.654-5.317-4.882-.48-.263-.934-.512-1.334-.751-1.87-1.122-2.785-2.198-2.718-3.199.131-1.97 3.923-3.891 6.172-4.861 4.042-1.743 5.845-3.302 5.85-5.053.007-2.626-4.142-4.441-9.39-6.737-1.458-.648-2.275-1.455-2.241-2.213.04-.889 1.228-2.226 4.44-3.316 2.283-.775 3.612-1.738 4.064-2.944.508-1.356-.204-2.579-.724-3.472-.087-.149-.169-.29-.237-.417a.787.787 0 1 0-1.391.741c.082.153.171.307.266.469.42.722.855 1.469.61 2.125-.187.499-.875 1.25-3.094 2.003-3.467 1.176-5.423 2.859-5.509 4.737-.047 1.035.465 2.521 3.18 3.728 3.962 1.734 8.454 3.699 8.449 5.291-.001.56-.64 1.772-4.898 3.609-4.647 2.004-6.976 4.034-7.121 6.204-.111 1.662 1.027 3.185 3.479 4.656zM29.164 46.969c2.556 1.903 4.013 3.973 4.214 5.984.151 1.508-.411 2.983-1.669 4.386a.787.787 0 1 0 1.174 1.052c1.566-1.745 2.261-3.628 2.064-5.596-.247-2.464-1.92-4.917-4.841-7.091-1.235-.92-1.83-1.852-1.819-2.85.017-1.519 1.493-3.363 4.268-5.335 2.433-1.729 3.524-3.163 3.54-4.65.013-1.31-.794-2.523-2.542-3.818-3.265-2.421-2.556-3.855-1.658-5.672.507-1.026 1.031-2.087.778-3.314a.788.788 0 1 0-1.544.32c.144.695-.223 1.437-.647 2.296-.924 1.871-2.19 4.432 2.132 7.637 1.289.956 1.912 1.785 1.904 2.536-.009.907-.95 2.013-2.876 3.381-3.294 2.341-4.908 4.501-4.931 6.603-.018 1.516.808 2.906 2.453 4.131z"></path></g></switch></g><!----></svg>