<svg data-v-423bf9ae="" xmlns="http://www.w3.org/2000/svg" viewBox="0 0 43.21807545460626 60" class="icon"><!----><!----><!----><!----><g data-v-423bf9ae="" id="e47137c2-61f5-44bc-bb68-e7ef57a866f4" transform="matrix(0.6666702270697958,0,0,0.6666702270697958,-11.724730811852119,-3.3336714126865843)" stroke="none" fill="white"><switch><g><path d="M72.826 67.021l.001.014zM79.197 51.652L66.301 62.82a41.032 41.032 0 0 0-2.256-.477 54.317 54.317 0 0 0-1.256-.215c6.389-6.652 11.697-12.183 11.697-12.183 2.111-2.292-.641-3.099-2.418-1.169L60.56 61.812c-4.355-.548-9.662-.835-15.584-.835l-.285.001c-6.791.01-13.47.611-18.808 1.695-2.33.474-4.289 1.022-5.665 1.587-1.221.501-2.623 1.233-2.631 2.461v.022c.001.055.005.103.01.142.183 7.547 3.124 14.606 8.282 19.886C31.066 92.077 37.927 95 45.197 95c7.152 0 13.94-2.852 19.114-8.029 5.131-5.136 8.15-12.031 8.504-19.423.025-.166.029-.336.014-.507l-.001-.006v.001l-.098.01-.001-.014.098-.011-.006-.042c-.207-1.451-1.656-2.625-4.398-3.553l12.974-10.381c2.484-2.067-.106-3.134-2.2-1.393zM45.982 70.76h-.255c-8.908-.017-15.812-.598-20.521-1.728-3.429-.823-4.785-1.728-5.295-2.209.612-.401 2.423-1.212 6.389-2.019 5.21-1.061 11.742-1.65 18.393-1.659l.237-.001c5.201 0 9.902.223 13.878.649l-5.99 6.785c-2.205.12-4.501.182-6.836.182zm17.594-1.364a65.338 65.338 0 0 1-3.251.507l6.034-4.826c3.279.863 4.068 1.724 4.257 2.062-.591.507-2.561 1.434-7.04 2.257zm-5.797.802c-.969.099-1.968.185-2.991.258l6.153-6.404c1.014.138 1.972.291 2.867.459l.441.085-6.47 5.602z"></path><path d="M60.555 28.321c-5.252 2.298-9.4 4.113-9.394 6.739.005 1.751 1.81 3.31 5.851 5.053 2.248.97 6.041 2.892 6.172 4.861.066 1-.848 2.077-2.718 3.199-.4.24-.854.488-1.334.751-2.244 1.229-4.787 2.622-5.317 4.882-.268 1.14.033 2.342.893 3.573a.784.784 0 0 0 1.097.195.79.79 0 0 0 .195-1.098c-.601-.86-.813-1.616-.65-2.312.369-1.575 2.682-2.842 4.539-3.859.494-.271.961-.526 1.389-.782 2.451-1.472 3.59-2.994 3.479-4.656-.145-2.17-2.473-4.199-7.119-6.204-4.26-1.837-4.897-3.05-4.898-3.61-.004-1.592 4.486-3.557 8.453-5.292 2.71-1.205 3.223-2.691 3.176-3.726-.086-1.878-2.043-3.561-5.51-4.737-2.219-.753-2.906-1.505-3.094-2.003-.245-.657.189-1.403.611-2.126.094-.162.184-.315.266-.469a.789.789 0 0 0-1.392-.741 9.19 9.19 0 0 1-.236.417c-.52.893-1.231 2.115-.725 3.472.452 1.206 1.781 2.169 4.064 2.943 3.213 1.09 4.4 2.428 4.44 3.316.033.761-.783 1.568-2.238 2.214z"></path><path d="M42.133 38.982c.427.256.894.511 1.388.782 1.858 1.017 4.17 2.283 4.54 3.859.163.694-.05 1.451-.65 2.311a.789.789 0 0 0 1.293.903c.859-1.231 1.16-2.434.893-3.573-.53-2.261-3.074-3.654-5.317-4.882-.48-.263-.934-.512-1.334-.751-1.87-1.122-2.785-2.198-2.718-3.199.131-1.97 3.923-3.891 6.172-4.861 4.042-1.743 5.845-3.302 5.85-5.053.007-2.626-4.142-4.441-9.39-6.737-1.458-.648-2.275-1.455-2.241-2.213.04-.889 1.228-2.226 4.44-3.316 2.283-.775 3.612-1.738 4.064-2.944.508-1.356-.204-2.579-.724-3.472-.087-.149-.169-.29-.237-.417a.787.787 0 1 0-1.391.741c.082.153.171.307.266.469.42.722.855 1.469.61 2.125-.187.499-.875 1.25-3.094 2.003-3.467 1.176-5.423 2.859-5.509 4.737-.047 1.035.465 2.521 3.18 3.728 3.962 1.734 8.454 3.699 8.449 5.291-.001.56-.64 1.772-4.898 3.609-4.647 2.004-6.976 4.034-7.121 6.204-.111 1.662 1.027 3.185 3.479 4.656zM29.164 46.969c2.556 1.903 4.013 3.973 4.214 5.984.151 1.508-.411 2.983-1.669 4.386a.787.787 0 1 0 1.174 1.052c1.566-1.745 2.261-3.628 2.064-5.596-.247-2.464-1.92-4.917-4.841-7.091-1.235-.92-1.83-1.852-1.819-2.85.017-1.519 1.493-3.363 4.268-5.335 2.433-1.729 3.524-3.163 3.54-4.65.013-1.31-.794-2.523-2.542-3.818-3.265-2.421-2.556-3.855-1.658-5.672.507-1.026 1.031-2.087.778-3.314a.788.788 0 1 0-1.544.32c.144.695-.223 1.437-.647 2.296-.924 1.871-2.19 4.432 2.132 7.637 1.289.956 1.912 1.785 1.904 2.536-.009.907-.95 2.013-2.876 3.381-3.294 2.341-4.908 4.501-4.931 6.603-.018 1.516.808 2.906 2.453 4.131z"></path></g></switch></g><!----></svg>